HIERARCHY
ROOT Hips
{
	OFFSET 0.00000 0.00000 0.00000
	CHANNELS 6 Xposition Yposition Zposition Zrotation Yrotation Xrotation 
	JOINT LHipJoint
	{
		OFFSET 0 0 0
		CHANNELS 3 Zrotation Yrotation Xrotation
		JOINT LeftHip
		{
			OFFSET 1.66553 -1.82942 0.76350
			CHANNELS 3 Zrotation Yrotation Xrotation
			JOINT LeftKnee
			{
				OFFSET 2.41740 -6.64177 0.00000
				CHANNELS 3 Zrotation Yrotation Xrotation
				JOINT LeftAnkle
				{
					OFFSET 2.71614 -7.46254 0.00000
					CHANNELS 3 Zrotation Yrotation Xrotation
					JOINT LeftToe
					{
						OFFSET 0.08005 -0.21993 1.82495
						CHANNELS 3 Zrotation Yrotation Xrotation
						End Site
						{
							OFFSET 0.00000 -0.00000 0.93441
						}
					}
				}
			}
		}
	}
	JOINT RHipJoint
	{
		OFFSET 0 0 0
		CHANNELS 3 Zrotation Yrotation Xrotation
		JOINT RightHip
		{
			OFFSET -1.63725 -1.82942 0.76350
			CHANNELS 3 Zrotation Yrotation Xrotation
			JOINT RightKnee
			{
				OFFSET -2.40538 -6.60872 0.00000
				CHANNELS 3 Zrotation Yrotation Xrotation
				JOINT RightAnkle
				{
					OFFSET -2.73312 -7.50919 0.00000
					CHANNELS 3 Zrotation Yrotation Xrotation
					JOINT RightToe
					{
						OFFSET -0.15567 -0.42769 1.93504
						CHANNELS 3 Zrotation Yrotation Xrotation
						End Site
						{
							OFFSET -0.00000 -0.00000 1.00100
						}
					}
				}
			}
		}
	}
	JOINT lowerback
	{
		OFFSET 0 0 0
		CHANNELS 3 Zrotation Yrotation Xrotation
		JOINT Chest
		{
			OFFSET 0.00326 2.30118 -0.13017
			CHANNELS 3 Zrotation Yrotation Xrotation
			JOINT Chest2
			{
				OFFSET 0.02887 2.30677 0.00834
				CHANNELS 3 Zrotation Yrotation Xrotation
				JOINT lowerneck
				{
					OFFSET 0 0 0
					CHANNELS 3 Zrotation Yrotation Xrotation
					JOINT Neck
					{
						OFFSET 0.12946 1.68326 0.00713
						CHANNELS 3 Zrotation Yrotation Xrotation
						JOINT Head
						{
							OFFSET -0.24364 1.67243 -0.16079
							CHANNELS 3 Zrotation Yrotation Xrotation
							End Site
							{
								OFFSET -0.09229 1.70819 -0.06383
							}
						}
					}
				}
				JOINT LeftCollar
				{
					OFFSET 0 0 0
					CHANNELS 3 Zrotation Yrotation Xrotation
					JOINT LeftShoulder
					{
						OFFSET 3.28104 0.69567 -0.00556
CHANNELS 3 Zrotation Xrotation Yrotation
						JOINT LeftElbow
						{
OFFSET 0 -5.707060 -0.000000
CHANNELS 3 Zrotation Xrotation Yrotation
							JOINT LeftWrist
							{
OFFSET 0 -3.332430 0.000000
CHANNELS 3 Zrotation Xrotation Yrotation
								JOINT lhand
								{
									OFFSET 0 0 0
CHANNELS 3 Zrotation Xrotation Yrotation
									JOINT LFingers
									{
OFFSET 0 -0.792690 0.000000
CHANNELS 3 Zrotation Xrotation Yrotation
										End Site
										{
OFFSET 0 -0.639090 0.000000
										}
									}
								}
								JOINT LThumb
								{
OFFSET 0 0.000000 0.000000
CHANNELS 3 Zrotation Xrotation Yrotation
									End Site
									{
OFFSET 0 -0.648840 0.648840
									}
								}
							}
						}
					}
				}
				JOINT RightCollar
				{
					OFFSET 0 0 0
					CHANNELS 3 Zrotation Yrotation Xrotation
					JOINT RightShoulder
					{
						OFFSET -3.40955 0.64424 0.14010
CHANNELS 3 Zrotation Xrotation Yrotation
						JOINT RightElbow
						{
OFFSET 0 -5.881760 -0.000000
CHANNELS 3 Zrotation Xrotation Yrotation
							JOINT RightWrist
							{
OFFSET 0 -3.281560 0.000000
CHANNELS 3 Zrotation Xrotation Yrotation
								JOINT rhand
								{
									OFFSET 0 0 0
CHANNELS 3 Zrotation Xrotation Yrotation
									JOINT RFingers
									{
OFFSET 0 -0.863130 0.000000
CHANNELS 3 Zrotation Xrotation Yrotation
										End Site
										{
OFFSET 0 -0.695870 0.000000
										}
									}
								}
								JOINT RThumb
								{
OFFSET 0 0.000000 0.000000
CHANNELS 3 Zrotation Xrotation Yrotation
									End Site
									{
OFFSET 0 -0.706500 0.706500
									}
								}
							}
						}
					}
				}
			}
		}
	}
}
MOTION
Frames: 4
Frame Time: 0.008333333333333333
16.718632 18.178937 -0.730317 196.747886 59.412446 216.816167 0.000000 0.000000 0.000000 -2.381413 -6.760775 -32.253240 1.581452 7.933684 22.512718 0.384159 5.374306 -14.918724 2.080659 -9.031882 -25.895318 0.000000 0.000000 0.000000 22.551579 -5.475151 -41.034677 -1.248803 -7.085067 19.967660 -0.216565 3.161625 10.540328 -4.985129 -13.366935 40.758111 5.211975 -0.358548 10.021678 4.217166 1.700536 -10.688444 1.445918 0.745320 -17.958404 12.161927 -11.774289 -8.270787 -7.058265 -16.661519 0.190082 -4.105316 -8.453716 -0.229486 0.000000 0.000000 0.000000 33.395493 14.100335 28.342491 151.192511 -39.849011 109.362864 51.700375 -74.510412 -16.573096 0.000000 0.000000 0.000000 -7.125000 0.000000 0.000000 25.857665 53.699203 -5.833734 0.000000 0.000000 0.000000 -50.599227 -14.183367 -32.915876 -25.099066 -36.305041 -8.348510 -38.478586 -32.445470 -2.530518 0.000000 0.000000 0.000000 7.125000 0.000000 0.000000 -9.048142 26.723146 -4.060319
16.122984 18.144141 -1.200042 195.267456 66.249736 219.633149 0.000000 0.000000 0.000000 -9.782823 -2.053875 -39.283814 1.778242 8.388098 23.899108 0.451230 2.878656 -14.070292 1.493832 -7.720624 -21.868887 0.000000 0.000000 0.000000 17.701202 -1.525078 -46.185105 -1.272112 -7.148507 20.156162 -0.035183 0.533880 3.768817 -3.184951 -10.988634 32.241515 5.312864 0.605296 10.874959 2.254939 2.718477 -10.847366 -1.138880 0.937927 -18.582284 10.845641 -10.841096 -8.862870 -5.425014 -15.340168 -2.748493 -3.786771 -7.806680 -0.722578 0.000000 0.000000 0.000000 41.258361 19.701379 32.593334 143.254274 -46.018441 103.942943 53.166760 -72.391531 -16.126993 0.000000 0.000000 0.000000 -7.125000 0.000000 0.000000 27.494940 53.534248 -6.132815 0.000000 0.000000 0.000000 -54.336156 -16.144507 -32.444511 -24.266521 -35.444781 -7.860628 -39.136322 -33.630004 -3.472253 0.000000 0.000000 0.000000 7.125000 0.000000 0.000000 -9.414734 25.495284 -4.503229
15.667084 18.010249 -1.654255 183.996890 73.078512 209.974808 0.000000 0.000000 0.000000 -19.651959 0.242777 -42.209815 1.915303 8.687373 24.822200 0.534501 1.959311 -14.660479 1.362850 -7.388838 -20.872564 0.000000 0.000000 0.000000 11.016630 0.150937 -49.966614 -2.789131 -10.344589 30.100850 -0.195293 -4.234976 -11.001744 -2.695586 -10.184661 29.577281 5.711433 0.283956 11.740097 -0.484311 1.768609 -10.031236 -4.289989 0.144348 -18.042497 8.070334 -9.726004 -8.401331 -4.610684 -13.564539 -3.380266 -3.026287 -6.877913 -0.576048 0.000000 0.000000 0.000000 47.252709 21.856540 37.307039 129.347519 -53.253401 93.303395 53.235669 -70.453089 -16.665962 0.000000 0.000000 0.000000 -7.125000 0.000000 0.000000 27.882317 54.287175 -6.762364 0.000000 0.000000 0.000000 -55.942223 -20.063201 -29.381032 -26.228378 -37.433262 -9.026127 -38.639492 -34.657253 -3.159330 0.000000 0.000000 0.000000 7.125000 0.000000 0.000000 -9.087338 25.921886 -4.251097
15.603016 17.906519 -1.883144 159.600212 81.310463 184.166778 0.000000 0.000000 0.000000 -28.352996 6.537542 -42.082475 2.061919 8.993862 25.776150 0.548882 1.533954 -14.634506 2.318313 -9.499302 -27.370558 0.000000 0.000000 0.000000 8.317552 -0.063589 -52.660613 -5.797104 -14.228236 44.160930 -0.201997 -6.431826 -13.192278 -3.624065 -11.642345 34.478543 4.338797 0.642825 11.655936 -3.217835 1.455694 -8.741876 -6.538051 -0.009626 -16.334597 5.348609 -7.956009 -5.882512 -5.374354 -10.906509 -3.527378 -2.687176 -5.494713 -0.747086 0.000000 0.000000 0.000000 51.161781 22.493080 39.432328 114.649927 -57.574256 81.173547 54.022880 -67.753372 -16.816120 0.000000 0.000000 0.000000 -7.125000 0.000000 0.000000 29.017907 54.736758 -7.407186 0.000000 0.000000 0.000000 -54.959334 -22.755567 -21.533699 -30.404461 -41.237384 -11.675432 -38.088949 -38.520175 -3.464675 0.000000 0.000000 0.000000 7.125000 0.000000 0.000000 -8.637949 25.570850 -4.107592
